<svg width="345" height="345" viewBox="0 0 345 345" fill="none" xmlns="http://www.w3.org/2000/svg">
<g filter="url(#filter0_d_4065_547)">
<circle cx="172.5" cy="172.501" r="93.0222" transform="rotate(-178.721 172.5 172.501)" fill="#B9EB0C" stroke="#DB3106" stroke-width="7"/>
<path d="M256.111 131.565C253.051 140.08 247.065 152.15 226.825 149.718C201.524 146.677 173.714 112.285 145.425 107.921C115.924 103.371 100.178 112.105 89.0471 131.186" stroke="#DB3106" stroke-width="7"/>
<path d="M251.764 221.779C249.708 212.968 243.103 198.627 222.718 198.707C197.235 198.806 165.641 229.759 137.037 230.828C107.208 231.943 91.8301 219.04 87.8545 211.089" stroke="#DB3106" stroke-width="7"/>
</g>
<path d="M101.636 172.109V167.225C101.636 165.053 103.004 163.709 105.248 163.709C107.492 163.709 108.872 165.053 108.872 167.225V172.109H107.084V167.225C107.084 166.073 106.364 165.365 105.236 165.365C104.12 165.365 103.424 166.061 103.424 167.225V172.109H101.636ZM112.582 165.989H115.414V167.633H112.582V172.073H110.794V163.829H112.582V165.989ZM124.171 170.429H125.023V172.085H116.311V169.589H118.099V170.429H120.835C122.131 170.321 123.199 169.181 123.199 167.837C123.199 166.433 122.071 165.341 120.679 165.341C119.383 165.341 118.279 166.397 118.111 167.813L116.335 167.357C116.683 165.221 118.459 163.685 120.667 163.685C123.127 163.685 125.023 165.485 125.023 167.837C125.023 168.785 124.699 169.709 124.171 170.429ZM126.339 172.109V167.225C126.339 165.053 127.707 163.709 129.951 163.709C132.195 163.709 133.575 165.053 133.575 167.225V172.109H131.787V167.225C131.787 166.073 131.067 165.365 129.939 165.365C128.823 165.365 128.127 166.061 128.127 167.225V172.109H126.339ZM137.285 165.989H140.117V167.633H137.285V172.073H135.497V163.829H137.285V165.989ZM149.786 163.829V165.485H148.61V168.701C148.61 170.885 147.242 172.217 144.998 172.217C142.754 172.217 141.374 170.885 141.374 168.701V163.829H143.162V168.701C143.162 169.865 143.882 170.561 145.01 170.561C146.126 170.561 146.822 169.877 146.822 168.701V163.829H149.786ZM161.202 167.633H155.526V168.701C155.526 169.877 156.222 170.561 157.338 170.561C158.466 170.561 159.186 169.769 159.186 168.461H160.95C160.95 170.789 159.594 172.217 157.35 172.217C155.106 172.217 153.738 170.885 153.738 168.701V163.829H155.526V165.989H161.202V167.633ZM170.939 163.829V165.485H169.763V168.701C169.763 170.885 168.395 172.217 166.151 172.217C163.907 172.217 162.527 170.885 162.527 168.701V163.829H164.315V168.701C164.315 169.865 165.035 170.561 166.163 170.561C167.279 170.561 167.975 169.877 167.975 168.701V163.829H170.939ZM176.726 170.405H181.982V172.073H174.41V170.585L178.106 165.293L177.158 164.621L178.154 163.181L180.59 164.873L176.726 170.405ZM190.463 167.633H184.787V168.701C184.787 169.877 185.483 170.561 186.599 170.561C187.727 170.561 188.447 169.769 188.447 168.461H190.211C190.211 170.789 188.855 172.217 186.611 172.217C184.367 172.217 182.999 170.885 182.999 168.701V163.829H184.787V165.989H190.463V167.633ZM198.424 170.417H199.6V172.073H196.636V167.177C196.636 166.001 195.94 165.317 194.824 165.317C193.684 165.317 192.976 166.097 192.976 167.429H191.188C191.188 164.969 192.52 163.685 194.8 163.685C197.044 163.685 198.424 165.017 198.424 167.189V170.417ZM204.652 165.449C206.92 165.449 208.384 166.697 208.276 168.965L208.252 169.457H206.488V168.953C206.488 167.801 205.768 167.105 204.64 167.105C203.524 167.105 202.828 167.789 202.828 168.953V172.073H201.04V163.829H202.828V165.821C203.344 165.581 203.968 165.449 204.652 165.449ZM215.565 167.849H217.353V168.701C217.353 170.165 216.633 172.217 213.717 172.217C210.657 172.217 210.117 169.949 210.117 168.701V165.485H208.941V163.829H211.905V168.701C211.905 169.877 212.601 170.561 213.753 170.561C215.097 170.561 215.565 169.613 215.565 168.701V167.849ZM226.369 171.329L225.253 172.529L224.341 171.569C223.741 172.073 222.901 172.217 222.061 172.217C219.817 172.217 218.437 170.885 218.437 168.701V163.829H220.225V168.701C220.225 169.853 220.969 170.561 222.073 170.561C222.445 170.561 222.853 170.513 223.117 170.405L222.349 169.733L223.501 168.629L223.873 169.097C223.885 169.001 223.885 168.809 223.885 168.701V163.829H225.673V168.701C225.673 169.289 225.589 169.877 225.337 170.357L226.369 171.329ZM232.774 165.989H234.562V172.073H232.774V170.105C232.258 170.333 231.634 170.477 230.95 170.477C228.802 170.477 227.326 169.217 227.326 166.961V163.829H229.114V166.961C229.114 168.125 229.834 168.821 230.962 168.821C232.078 168.821 232.774 168.125 232.774 166.961V165.989ZM240.09 165.449C242.358 165.449 243.822 166.697 243.714 168.965L243.69 169.457H241.926V168.953C241.926 167.801 241.206 167.105 240.078 167.105C238.962 167.105 238.266 167.789 238.266 168.953V172.073H236.478V163.829H238.266V165.821C238.782 165.581 239.406 165.449 240.09 165.449ZM113.175 185.405H118.431V187.073H110.859V185.585L114.555 180.293L113.607 179.621L114.603 178.181L117.039 179.873L113.175 185.405ZM127.381 186.329L126.265 187.529L125.353 186.569C124.753 187.073 123.913 187.217 123.073 187.217C120.829 187.217 119.449 185.885 119.449 183.701V178.829H121.237V183.701C121.237 184.853 121.981 185.561 123.085 185.561C123.457 185.561 123.865 185.513 124.129 185.405L123.361 184.733L124.513 183.629L124.885 184.097C124.897 184.001 124.897 183.809 124.897 183.701V178.829H126.685V183.701C126.685 184.289 126.601 184.877 126.349 185.357L127.381 186.329ZM136.99 178.829V180.485H135.814V183.701C135.814 185.885 134.446 187.217 132.202 187.217C129.958 187.217 128.578 185.885 128.578 183.701V178.829H130.366V183.701C130.366 184.865 131.086 185.561 132.214 185.561C133.33 185.561 134.026 184.877 134.026 183.701V178.829H136.99ZM146.002 186.329L144.886 187.529L143.974 186.569C143.374 187.073 142.534 187.217 141.694 187.217C139.45 187.217 138.07 185.885 138.07 183.701V178.829H139.858V183.701C139.858 184.853 140.602 185.561 141.706 185.561C142.078 185.561 142.486 185.513 142.75 185.405L141.982 184.733L143.134 183.629L143.506 184.097C143.518 184.001 143.518 183.809 143.518 183.701V178.829H145.306V183.701C145.306 184.289 145.222 184.877 144.97 185.357L146.002 186.329ZM148.987 182.201V187.085H147.199V182.201C147.199 180.029 148.567 178.685 150.811 178.685C153.055 178.685 154.435 180.113 154.435 182.441H152.647C152.647 181.133 151.927 180.353 150.799 180.353C149.683 180.353 148.987 181.037 148.987 182.201ZM165.626 178.829V183.701C165.626 185.885 164.258 187.217 162.014 187.217C159.77 187.217 158.39 185.885 158.39 183.701V178.829H160.178V183.701C160.178 184.865 160.898 185.561 162.026 185.561C163.142 185.561 163.838 184.877 163.838 183.701V178.829H165.626ZM167.308 187.109V182.225C167.308 180.053 168.676 178.709 170.92 178.709C173.164 178.709 174.544 180.053 174.544 182.225V187.109H172.756V182.225C172.756 181.073 172.036 180.365 170.908 180.365C169.792 180.365 169.096 181.061 169.096 182.225V187.109H167.308ZM178.254 180.989H181.086V182.633H178.254V187.073H176.466V178.829H178.254V180.989ZM184.131 182.201V187.085H182.343V182.201C182.343 180.029 183.711 178.685 185.955 178.685C188.199 178.685 189.579 180.113 189.579 182.441H187.791C187.791 181.133 187.071 180.353 185.943 180.353C184.827 180.353 184.131 181.037 184.131 182.201ZM192.259 185.405H195.643L193.687 182.345C192.799 183.101 192.307 184.241 192.259 185.405ZM195.127 181.229L197.935 185.573V187.073H190.363V185.645C190.363 184.061 191.551 181.949 192.739 180.857L191.995 179.681L193.507 178.733L194.143 179.717C194.995 179.117 195.703 178.733 196.687 178.253L197.695 179.693C196.819 180.161 195.811 180.725 195.127 181.229ZM204.743 183.581H206.975V182.189C206.975 181.049 206.255 180.341 205.127 180.341C204.107 180.341 203.327 180.893 203.327 181.937C203.327 182.765 203.831 183.581 204.743 183.581ZM208.763 182.189V183.581H209.939V185.237H208.763V187.073H206.975V185.237H204.635C202.367 185.237 201.527 183.521 201.527 181.985C201.527 180.785 202.127 178.685 205.139 178.685C207.383 178.685 208.763 180.017 208.763 182.189ZM217.1 182.849H218.888V183.701C218.888 185.165 218.168 187.217 215.252 187.217C212.192 187.217 211.652 184.949 211.652 183.701V180.485H210.476V178.829H213.44V183.701C213.44 184.877 214.136 185.561 215.288 185.561C216.632 185.561 217.1 184.613 217.1 183.701V182.849ZM227.436 182.633H221.76V183.701C221.76 184.877 222.456 185.561 223.572 185.561C224.7 185.561 225.42 184.769 225.42 183.461H227.184C227.184 185.789 225.828 187.217 223.584 187.217C221.34 187.217 219.972 185.885 219.972 183.701V178.829H221.76V180.989H227.436V182.633ZM230.789 178.829V185.417H234.197V187.073H229.001V178.829H230.789Z" fill="black"/>
<defs>
<filter id="filter0_d_4065_547" x="72.9774" y="75.9785" width="196.045" height="200.046" filterUnits="userSpaceOnUse" color-interpolation-filters="sRGB">
<feFlood flood-opacity="0" result="BackgroundImageFix"/>
<feColorMatrix in="SourceAlpha" type="matrix" values="0 0 0 0 0 0 0 0 0 0 0 0 0 0 0 0 0 0 127 0" result="hardAlpha"/>
<feOffset dx="-3" dy="7"/>
<feComposite in2="hardAlpha" operator="out"/>
<feColorMatrix type="matrix" values="0 0 0 0 0 0 0 0 0 0 0 0 0 0 0 0 0 0 0.8 0"/>
<feBlend mode="normal" in2="BackgroundImageFix" result="effect1_dropShadow_4065_547"/>
<feBlend mode="normal" in="SourceGraphic" in2="effect1_dropShadow_4065_547" result="shape"/>
</filter>
</defs>
</svg>
