<svg width="434" height="429" viewBox="0 0 434 429" fill="none" xmlns="http://www.w3.org/2000/svg">
<g filter="url(#filter0_d_4142_30)">
<circle cx="216.964" cy="211.965" r="117" transform="rotate(-178.721 216.964 211.965)" fill="#B9EB0C" stroke="#DB3106" stroke-width="7"/>
<path d="M322.126 160.477C318.278 171.186 310.749 186.368 285.291 183.308C253.469 179.484 218.491 136.227 182.909 130.738C145.804 125.015 126 136 111.999 160" stroke="#DB3106" stroke-width="7"/>
<path d="M316.659 273.945C314.074 262.863 305.766 244.825 280.126 244.926C248.075 245.051 208.336 283.983 172.359 285.327C134.842 286.729 115.5 270.5 110.5 260.5" stroke="#DB3106" stroke-width="7"/>
</g>
<path d="M158.302 212.216C157.582 212.216 156.898 212.144 156.25 212C155.602 211.856 155.026 211.628 154.522 211.316C154.03 210.992 153.64 210.59 153.352 210.11C153.076 209.618 152.938 209.024 152.938 208.328C152.938 208.268 152.938 208.208 152.938 208.148C152.938 208.076 152.944 208.022 152.956 207.986H155.62C155.608 208.022 155.602 208.07 155.602 208.13C155.602 208.19 155.602 208.244 155.602 208.292C155.602 208.676 155.704 209 155.908 209.264C156.124 209.528 156.436 209.726 156.844 209.858C157.252 209.99 157.726 210.056 158.266 210.056C158.614 210.056 158.92 210.038 159.184 210.002C159.46 209.954 159.7 209.894 159.904 209.822C160.12 209.738 160.294 209.642 160.426 209.534C160.57 209.426 160.672 209.3 160.732 209.156C160.804 209.012 160.84 208.85 160.84 208.67C160.84 208.346 160.732 208.082 160.516 207.878C160.312 207.674 160.024 207.5 159.652 207.356C159.292 207.212 158.884 207.08 158.428 206.96C157.972 206.84 157.504 206.72 157.024 206.6C156.544 206.468 156.076 206.312 155.62 206.132C155.164 205.94 154.756 205.712 154.396 205.448C154.036 205.184 153.748 204.848 153.532 204.44C153.316 204.032 153.208 203.54 153.208 202.964C153.208 202.352 153.334 201.824 153.586 201.38C153.85 200.936 154.216 200.57 154.684 200.282C155.152 199.994 155.692 199.784 156.304 199.652C156.916 199.508 157.582 199.436 158.302 199.436C158.974 199.436 159.61 199.508 160.21 199.652C160.81 199.784 161.338 200 161.794 200.3C162.25 200.6 162.604 200.978 162.856 201.434C163.12 201.89 163.252 202.43 163.252 203.054V203.27H160.642V203.126C160.642 202.802 160.546 202.526 160.354 202.298C160.162 202.07 159.892 201.89 159.544 201.758C159.196 201.626 158.788 201.56 158.32 201.56C157.816 201.56 157.384 201.608 157.024 201.704C156.676 201.8 156.406 201.944 156.214 202.136C156.034 202.316 155.944 202.532 155.944 202.784C155.944 203.072 156.046 203.312 156.25 203.504C156.466 203.684 156.754 203.846 157.114 203.99C157.486 204.122 157.9 204.242 158.356 204.35C158.812 204.458 159.28 204.578 159.76 204.71C160.24 204.842 160.708 204.998 161.164 205.178C161.62 205.358 162.028 205.586 162.388 205.862C162.748 206.126 163.036 206.456 163.252 206.852C163.468 207.248 163.576 207.722 163.576 208.274C163.576 209.222 163.348 209.984 162.892 210.56C162.436 211.136 161.812 211.556 161.02 211.82C160.228 212.084 159.322 212.216 158.302 212.216ZM171.059 212.216C169.931 212.216 168.959 212.036 168.143 211.676C167.339 211.316 166.721 210.776 166.289 210.056C165.857 209.324 165.641 208.418 165.641 207.338V199.652H168.341V207.266C168.341 208.154 168.575 208.838 169.043 209.318C169.511 209.786 170.183 210.02 171.059 210.02C171.935 210.02 172.607 209.786 173.075 209.318C173.555 208.838 173.795 208.154 173.795 207.266V199.652H176.495V207.338C176.495 208.418 176.279 209.324 175.847 210.056C175.415 210.776 174.791 211.316 173.975 211.676C173.171 212.036 172.199 212.216 171.059 212.216ZM179.178 212V199.652H185.604C186.492 199.652 187.23 199.82 187.818 200.156C188.418 200.48 188.868 200.942 189.168 201.542C189.48 202.13 189.636 202.832 189.636 203.648C189.636 204.464 189.474 205.178 189.15 205.79C188.838 206.39 188.376 206.858 187.764 207.194C187.152 207.53 186.402 207.698 185.514 207.698H181.86V212H179.178ZM181.86 205.502H185.154C185.718 205.502 186.15 205.34 186.45 205.016C186.762 204.692 186.918 204.242 186.918 203.666C186.918 203.27 186.852 202.94 186.72 202.676C186.588 202.412 186.39 202.208 186.126 202.064C185.874 201.92 185.55 201.848 185.154 201.848H181.86V205.502ZM191.43 212V199.652H197.856C198.744 199.652 199.482 199.82 200.07 200.156C200.67 200.48 201.12 200.942 201.42 201.542C201.732 202.13 201.888 202.832 201.888 203.648C201.888 204.464 201.726 205.178 201.402 205.79C201.09 206.39 200.628 206.858 200.016 207.194C199.404 207.53 198.654 207.698 197.766 207.698H194.112V212H191.43ZM194.112 205.502H197.406C197.97 205.502 198.402 205.34 198.702 205.016C199.014 204.692 199.17 204.242 199.17 203.666C199.17 203.27 199.104 202.94 198.972 202.676C198.84 202.412 198.642 202.208 198.378 202.064C198.126 201.92 197.802 201.848 197.406 201.848H194.112V205.502ZM209.441 212.216C208.133 212.216 207.005 211.982 206.057 211.514C205.109 211.046 204.383 210.338 203.879 209.39C203.375 208.442 203.123 207.254 203.123 205.826C203.123 204.374 203.375 203.18 203.879 202.244C204.383 201.296 205.109 200.594 206.057 200.138C207.005 199.67 208.133 199.436 209.441 199.436C210.773 199.436 211.907 199.67 212.843 200.138C213.791 200.594 214.517 201.296 215.021 202.244C215.525 203.18 215.777 204.374 215.777 205.826C215.777 207.254 215.525 208.442 215.021 209.39C214.517 210.338 213.791 211.046 212.843 211.514C211.907 211.982 210.773 212.216 209.441 212.216ZM209.441 210.02C210.029 210.02 210.545 209.936 210.989 209.768C211.433 209.6 211.805 209.348 212.105 209.012C212.405 208.676 212.633 208.268 212.789 207.788C212.945 207.296 213.023 206.738 213.023 206.114V205.556C213.023 204.92 212.945 204.356 212.789 203.864C212.633 203.372 212.405 202.964 212.105 202.64C211.805 202.304 211.433 202.052 210.989 201.884C210.545 201.716 210.029 201.632 209.441 201.632C208.865 201.632 208.355 201.716 207.911 201.884C207.467 202.052 207.095 202.304 206.795 202.64C206.495 202.964 206.267 203.372 206.111 203.864C205.967 204.356 205.895 204.92 205.895 205.556V206.114C205.895 206.738 205.967 207.296 206.111 207.788C206.267 208.268 206.495 208.676 206.795 209.012C207.095 209.348 207.467 209.6 207.911 209.768C208.355 209.936 208.865 210.02 209.441 210.02ZM217.955 212V199.652H224.723C225.635 199.652 226.391 199.814 226.991 200.138C227.603 200.462 228.059 200.918 228.359 201.506C228.659 202.082 228.809 202.748 228.809 203.504C228.809 204.308 228.629 205.022 228.269 205.646C227.909 206.258 227.387 206.726 226.703 207.05L229.223 212H226.253L224.075 207.5H220.637V212H217.955ZM220.637 205.376H224.363C224.903 205.376 225.323 205.214 225.623 204.89C225.923 204.554 226.073 204.104 226.073 203.54C226.073 203.18 226.007 202.874 225.875 202.622C225.743 202.358 225.551 202.16 225.299 202.028C225.047 201.896 224.735 201.83 224.363 201.83H220.637V205.376ZM233.829 212V201.902H229.869V199.652H240.507V201.902H236.529V212H233.829ZM248.893 212V201.902H244.933V199.652H255.571V201.902H251.593V212H248.893ZM257.383 212V199.652H260.065V204.548H265.537V199.652H268.219V212H265.537V206.816H260.065V212H257.383ZM270.953 212V199.652H280.817V201.848H273.653V204.602H279.989V206.78H273.653V209.786H280.925V212H270.953ZM174.809 234V221.652H181.235C182.123 221.652 182.861 221.82 183.449 222.156C184.049 222.48 184.499 222.942 184.799 223.542C185.111 224.13 185.267 224.832 185.267 225.648C185.267 226.464 185.105 227.178 184.781 227.79C184.469 228.39 184.007 228.858 183.395 229.194C182.783 229.53 182.033 229.698 181.145 229.698H177.491V234H174.809ZM177.491 227.502H180.785C181.349 227.502 181.781 227.34 182.081 227.016C182.393 226.692 182.549 226.242 182.549 225.666C182.549 225.27 182.483 224.94 182.351 224.676C182.219 224.412 182.021 224.208 181.757 224.064C181.505 223.92 181.181 223.848 180.785 223.848H177.491V227.502ZM187.061 234V221.652H193.829C194.741 221.652 195.497 221.814 196.097 222.138C196.709 222.462 197.165 222.918 197.465 223.506C197.765 224.082 197.915 224.748 197.915 225.504C197.915 226.308 197.735 227.022 197.375 227.646C197.015 228.258 196.493 228.726 195.809 229.05L198.329 234H195.359L193.181 229.5H189.743V234H187.061ZM189.743 227.376H193.469C194.009 227.376 194.429 227.214 194.729 226.89C195.029 226.554 195.179 226.104 195.179 225.54C195.179 225.18 195.113 224.874 194.981 224.622C194.849 224.358 194.657 224.16 194.405 224.028C194.153 223.896 193.841 223.83 193.469 223.83H189.743V227.376ZM205.899 234.216C204.591 234.216 203.463 233.982 202.515 233.514C201.567 233.046 200.841 232.338 200.337 231.39C199.833 230.442 199.581 229.254 199.581 227.826C199.581 226.374 199.833 225.18 200.337 224.244C200.841 223.296 201.567 222.594 202.515 222.138C203.463 221.67 204.591 221.436 205.899 221.436C207.231 221.436 208.365 221.67 209.301 222.138C210.249 222.594 210.975 223.296 211.479 224.244C211.983 225.18 212.235 226.374 212.235 227.826C212.235 229.254 211.983 230.442 211.479 231.39C210.975 232.338 210.249 233.046 209.301 233.514C208.365 233.982 207.231 234.216 205.899 234.216ZM205.899 232.02C206.487 232.02 207.003 231.936 207.447 231.768C207.891 231.6 208.263 231.348 208.563 231.012C208.863 230.676 209.091 230.268 209.247 229.788C209.403 229.296 209.481 228.738 209.481 228.114V227.556C209.481 226.92 209.403 226.356 209.247 225.864C209.091 225.372 208.863 224.964 208.563 224.64C208.263 224.304 207.891 224.052 207.447 223.884C207.003 223.716 206.487 223.632 205.899 223.632C205.323 223.632 204.813 223.716 204.369 223.884C203.925 224.052 203.553 224.304 203.253 224.64C202.953 224.964 202.725 225.372 202.569 225.864C202.425 226.356 202.353 226.92 202.353 227.556V228.114C202.353 228.738 202.425 229.296 202.569 229.788C202.725 230.268 202.953 230.676 203.253 231.012C203.553 231.348 203.925 231.6 204.369 231.768C204.813 231.936 205.323 232.02 205.899 232.02ZM218.121 234.216C217.173 234.216 216.363 234.078 215.691 233.802C215.031 233.514 214.521 233.088 214.161 232.524C213.813 231.96 213.639 231.246 213.639 230.382V229.824H216.267V230.382C216.267 230.934 216.417 231.348 216.717 231.624C217.029 231.888 217.491 232.02 218.103 232.02C218.691 232.02 219.135 231.828 219.435 231.444C219.735 231.048 219.885 230.484 219.885 229.752V221.652H222.585V229.752C222.585 230.748 222.411 231.582 222.063 232.254C221.715 232.914 221.205 233.406 220.533 233.73C219.873 234.054 219.069 234.216 218.121 234.216ZM225.259 234V221.652H235.123V223.848H227.959V226.602H234.295V228.78H227.959V231.786H235.231V234H225.259ZM243.072 234.216C241.788 234.216 240.69 233.994 239.778 233.55C238.866 233.094 238.17 232.392 237.69 231.444C237.222 230.496 236.988 229.29 236.988 227.826C236.988 225.666 237.516 224.064 238.572 223.02C239.64 221.964 241.14 221.436 243.072 221.436C244.128 221.436 245.076 221.616 245.916 221.976C246.756 222.336 247.416 222.876 247.896 223.596C248.388 224.316 248.634 225.222 248.634 226.314H245.934C245.934 225.738 245.814 225.252 245.574 224.856C245.346 224.46 245.016 224.16 244.584 223.956C244.164 223.74 243.672 223.632 243.108 223.632C242.34 223.632 241.704 223.782 241.2 224.082C240.708 224.382 240.342 224.826 240.102 225.414C239.874 225.99 239.76 226.698 239.76 227.538V228.096C239.76 228.96 239.88 229.686 240.12 230.274C240.36 230.85 240.72 231.288 241.2 231.588C241.692 231.876 242.322 232.02 243.09 232.02C243.69 232.02 244.212 231.918 244.656 231.714C245.1 231.51 245.442 231.21 245.682 230.814C245.922 230.418 246.042 229.932 246.042 229.356H248.634C248.634 230.448 248.394 231.354 247.914 232.074C247.446 232.794 246.792 233.334 245.952 233.694C245.112 234.042 244.152 234.216 243.072 234.216ZM253.437 234V223.902H249.477V221.652H260.115V223.902H256.137V234H253.437Z" fill="black"/>
<defs>
<filter id="filter0_d_4142_30" x="93.4629" y="91.4639" width="244.001" height="248.001" filterUnits="userSpaceOnUse" color-interpolation-filters="sRGB">
<feFlood flood-opacity="0" result="BackgroundImageFix"/>
<feColorMatrix in="SourceAlpha" type="matrix" values="0 0 0 0 0 0 0 0 0 0 0 0 0 0 0 0 0 0 127 0" result="hardAlpha"/>
<feOffset dx="-3" dy="7"/>
<feComposite in2="hardAlpha" operator="out"/>
<feColorMatrix type="matrix" values="0 0 0 0 0 0 0 0 0 0 0 0 0 0 0 0 0 0 0.8 0"/>
<feBlend mode="normal" in2="BackgroundImageFix" result="effect1_dropShadow_4142_30"/>
<feBlend mode="normal" in="SourceGraphic" in2="effect1_dropShadow_4142_30" result="shape"/>
</filter>
</defs>
</svg>
